<svg enable-background="new 0 0 512 512" height="512" viewBox="0 0 512 512" width="512" xmlns="http://www.w3.org/2000/svg"><g><g><path d="m328 456h76c11.046 0 20-8.954 20-20v-132h-96z" fill="#249c9f"/></g><g><path d="m328 360h108c11.046 0 20-8.954 20-20v-40c0-11.046-8.954-20-20-20h-108z" fill="#31cad0"/></g><g><path d="m456 300v8c0 11.046-8.954 20-20 20h-108v-48h108c11.046 0 20 8.954 20 20z" fill="#8ae6da"/></g><g><path d="m184 456h-76c-11.046 0-20-8.954-20-20v-132h96z" fill="#249c9f"/></g><g><path d="m184 360h-108c-11.046 0-20-8.954-20-20v-40c0-11.046 8.954-20 20-20h108z" fill="#31cad0"/></g><g><path d="m56 300v8c0 11.046 8.954 20 20 20h108v-48h-108c-11.046 0-20 8.954-20 20z" fill="#8ae6da"/></g><g><g><path d="m444 112h-22l-20.106-80.425c-1.113-4.452-5.113-7.575-9.701-7.575h-272.385c-4.588 0-8.588 3.123-9.701 7.575l-20.107 80.425h-22c-11.046 0-20 8.954-20 20v12h416v-12c0-11.046-8.954-20-20-20z" fill="#8ae6da"/></g><g><path d="m120 342v74h48v72h176v-72h48v-74c0-16.569-13.431-30-30-30h-212c-16.569 0-30 13.431-30 30z" fill="#fbfbfb"/></g><g><path d="m168 392h-48v40c0 22.091 17.909 40 40 40h8z" fill="#ffd4cf"/></g><g><path d="m344 392h48v40c0 22.091-17.909 40-40 40h-8z" fill="#ffd4cf"/></g><g><path d="m152 312h48v64 48c0 17.673-14.327 32-32 32v-8-72z" fill="#31cad0"/></g><g><path d="m442 168h-18v-32h-336v32h-18c-16.569 0-30 13.431-30 30v20c0 16.569 13.431 30 30 30h18v4c0 33.137 26.863 60 60 60h216c33.137 0 60-26.863 60-60v-4h18c16.569 0 30-13.431 30-30v-20c0-16.569-13.431-30-30-30z" fill="#ffd4cf"/></g><g><path d="m88 216v-72h40v32c0 22.091-17.909 40-40 40z" fill="#fa8c50"/></g><g><path d="m424 216v-72h-40v32c0 22.091 17.909 40 40 40z" fill="#fa8c50"/></g><g><path d="m90 112h332l-8-32h-316z" fill="#fbfbfb"/></g></g><g><path d="m208 392h-48v-24l24-16 24 16z" fill="#8ae6da"/></g><g><path d="m360 312h-48v64 48c0 17.673 14.327 32 32 32v-8-72z" fill="#31cad0"/></g><g><path d="m304 392h48v-24l-24-16-24 16z" fill="#8ae6da"/></g><g><path d="m442 160h-10v-8h32c4.418 0 8-3.582 8-8v-12c0-15.439-12.561-28-28-28h-15.754l-18.592-74.366c-2.007-8.028-9.187-13.634-17.462-13.634h-32.192v16h32.192c.919 0 1.717.623 1.94 1.515l9.622 38.485h-295.508l9.621-38.485c.223-.892 1.021-1.515 1.94-1.515h224.193v-16h-224.192c-8.275 0-15.456 5.607-17.462 13.634l-18.592 74.366h-15.754c-15.439 0-28 12.561-28 28v12c0 4.418 3.582 8 8 8h32v8h-10c-20.953 0-38 17.047-38 38v20c0 20.953 17.047 38 38 38h10.116c.323 5.535 1.311 10.895 2.885 16h-7.001c-15.439 0-28 12.561-28 28v40c0 15.439 12.561 28 28 28h4v32h16v-32h16v64c0 5.608.967 10.993 2.742 16h-6.742c-6.617 0-12-5.383-12-12v-20h-16v20c0 15.439 12.561 28 28 28h16.253c8.795 9.815 21.562 16 35.747 16v8c0 4.418 3.582 8 8 8h176c4.418 0 8-3.582 8-8v-8c14.185 0 26.952-6.185 35.747-16h16.253c15.439 0 28-12.561 28-28v-68h4c15.439 0 28-12.561 28-28v-40c0-15.439-12.561-28-28-28h-7.001c1.574-5.105 2.562-10.465 2.885-16h10.116c20.953 0 38-17.047 38-38v-20c0-20.953-17.047-38-38-38zm-50-8h24v54.988c-13.786-3.562-24-16.104-24-30.988zm-287.754-64h303.508l4 16h-311.508zm-48.246 44c0-6.617 5.383-12 12-12h376c6.617 0 12 5.383 12 12v4h-400zm64 20v24c0 14.884-10.213 27.426-24 30.988v-54.988zm-56 148c0-6.617 5.383-12 12-12h14.333c7.667 12.237 19.118 21.872 32.701 27.253-1.458 1.47-2.797 3.057-4.002 4.747h-43.032c-6.617 0-12-5.383-12-12zm112 100h16v24c0 10.43-6.688 19.327-16 22.629zm-48-16v-42c0-10.713 7.697-19.662 17.852-21.608l10.163 40.65-.452.301c-2.226 1.484-3.563 3.982-3.563 6.657v16zm40-11.719 16-10.666 16 10.666v11.719h-32zm20.438-26.937c-2.687-1.791-6.188-1.791-8.875 0l-9.411 6.274-7.906-31.618h29.754v27.719zm-112.438 6.656c-6.617 0-12-5.383-12-12v-6.704c3.639 1.733 7.708 2.704 12 2.704h36.474c-.311 1.955-.474 3.959-.474 6v10zm52 80v-32h32v64c-17.645 0-32-14.355-32-32zm208 48h-160v-16.804c18.236-3.716 32-19.879 32-39.196v-24c4.418 0 8-3.582 8-8v-24c0-2.675-1.337-5.173-3.562-6.656l-4.438-2.959v-38.385h96v38.385l-4.438 2.958c-2.225 1.484-3.562 3.982-3.562 6.657v24c0 4.418 3.582 8 8 8v24c0 19.317 13.764 35.48 32 39.196zm0-33.371c-9.312-3.302-16-12.199-16-22.629v-24h16zm8-74.348v11.719h-32v-11.719l16-10.666zm12.438-10.937-.452-.301 10.162-40.65c10.155 1.944 17.852 10.894 17.852 21.607v42h-24v-16c0-2.675-1.337-5.173-3.562-6.656zm-14.588-9.725-9.412-6.275c-2.688-1.791-6.188-1.791-8.875 0l-3.563 2.375v-27.719h29.754zm42.15 80.381c0 17.645-14.355 32-32 32v-64h32zm32 4c0 6.617-5.383 12-12 12h-6.742c1.775-5.007 2.742-10.392 2.742-16v-64h16zm20-84h-36v-10c0-2.041-.162-4.045-.474-6h36.474c4.292 0 8.361-.971 12-2.704v6.704c0 6.617-5.383 12-12 12zm0-64c6.617 0 12 5.383 12 12v8c0 6.617-5.383 12-12 12h-43.032c-1.204-1.69-2.544-3.278-4.001-4.747 13.583-5.38 25.035-15.016 32.701-27.253zm28-70c0 12.131-9.869 22-22 22h-18c-4.418 0-8 3.582-8 8v4c0 28.673-23.327 52-52 52h-216c-28.673 0-52-23.327-52-52v-4c0-4.418-3.582-8-8-8h-18c-12.131 0-22-9.869-22-22v-20c0-12.131 9.869-22 22-22h10v40c0 4.418 3.582 8 8 8 26.467 0 48-21.533 48-48v-24h240v24c0 26.467 21.533 48 48 48 4.418 0 8-3.582 8-8v-40h10c12.131 0 22 9.869 22 22z"/><path d="m184 176c-22.056 0-40 17.944-40 40h16c0-13.234 10.766-24 24-24s24 10.766 24 24h16c0-22.056-17.944-40-40-40z"/><path d="m328 176c-22.056 0-40 17.944-40 40h16c0-13.234 10.767-24 24-24s24 10.766 24 24h16c0-22.056-17.944-40-40-40z"/><path d="m256 264c-8.822 0-16-7.178-16-16h-16c0 17.645 14.355 32 32 32s32-14.355 32-32h-16c0 8.822-7.178 16-16 16z"/></g></g></svg>
